# xmcd
#
# Track frame offsets: 
#        150
#        17600
#        36850
#        54315
#
# Disc length: 978 seconds
#
# Revision: 1
# Processed by: cddbd v1.5.2PL0 Copyright (c) Steve Scherf et al.
# Submitted via: ExactAudioCopyFreeDBPlugin 1.0
#
DISCID=2603d004
DTITLE=奥井雅美 - 天使の休息
DYEAR=1999
DGENRE=Anime
TTITLE0=天使の休息
TTITLE1=ルルル
TTITLE2=天使の休息(Backing Track)
TTITLE3=ルルル(Backing Track)
EXTD=YEAR: 1999
EXTT0=
EXTT1=
EXTT2=
EXTT3=
PLAYORDER=
